<?xml version="1.0" encoding="UTF-8" standalone="no"?>
<!DOCTYPE svg PUBLIC "-//W3C//DTD SVG 1.1//EN"
 "http://www.w3.org/Graphics/SVG/1.1/DTD/svg11.dtd">
<!-- Generated by graphviz version 2.43.0 (0)
 -->
<!-- Title: %3 Pages: 1 -->
<svg width="476pt" height="836pt"
 viewBox="0.00 0.00 475.51 836.00" xmlns="http://www.w3.org/2000/svg" xmlns:xlink="http://www.w3.org/1999/xlink">
<g id="graph0" class="graph" transform="scale(1 1) rotate(0) translate(4 832)">
<title>%3</title>
<polygon fill="white" stroke="transparent" points="-4,4 -4,-832 471.51,-832 471.51,4 -4,4"/>
<!-- A -->
<g id="node1" class="node">
<title>A</title>
<polygon fill="cyan" stroke="black" points="243.51,-828 189.51,-828 189.51,-792 243.51,-792 243.51,-828"/>
<text text-anchor="middle" x="216.51" y="-806.3" font-family="Times,serif" font-size="14.00">A</text>
</g>
<!-- r0 -->
<g id="node11" class="node">
<title>r0</title>
<ellipse fill="yellow" stroke="black" cx="49.51" cy="-738" rx="27" ry="18"/>
<text text-anchor="middle" x="49.51" y="-734.3" font-family="Times,serif" font-size="14.00">1</text>
</g>
<!-- A&#45;&gt;r0 -->
<g id="edge1" class="edge">
<title>A&#45;&gt;r0</title>
<path fill="none" stroke="black" d="M189.31,-797.6C158.25,-784.58 107.75,-763.41 76.7,-750.39"/>
<polygon fill="black" stroke="black" points="70.88,-753.38 74.74,-744.15 76.59,-744.93 72.72,-754.15 70.88,-753.38"/>
<polyline fill="none" stroke="black" points="71.89,-748.38 76.5,-750.31 "/>
</g>
<!-- r2 -->
<g id="node13" class="node">
<title>r2</title>
<ellipse fill="yellow" stroke="black" cx="271.51" cy="-738" rx="27" ry="18"/>
<text text-anchor="middle" x="271.51" y="-734.3" font-family="Times,serif" font-size="14.00">1</text>
</g>
<!-- A&#45;&gt;r2 -->
<g id="edge7" class="edge">
<title>A&#45;&gt;r2</title>
<path fill="none" stroke="black" d="M230.11,-791.7C238.09,-781.55 248.18,-768.7 256.4,-758.23"/>
<polygon fill="black" stroke="black" points="255.02,-751.9 262.88,-758.08 261.65,-759.65 253.78,-753.47 255.02,-751.9"/>
<polyline fill="none" stroke="black" points="259.57,-754.2 256.48,-758.13 "/>
</g>
<!-- r10 -->
<g id="node21" class="node">
<title>r10</title>
<ellipse fill="yellow" stroke="black" cx="440.51" cy="-162" rx="27" ry="18"/>
<text text-anchor="middle" x="440.51" y="-158.3" font-family="Times,serif" font-size="14.00">2</text>
</g>
<!-- A&#45;&gt;r10 -->
<g id="edge31" class="edge">
<title>A&#45;&gt;r10</title>
<path fill="none" stroke="black" d="M243.53,-804.89C303.11,-794.13 440.51,-759.32 440.51,-667 440.51,-667 440.51,-667 440.51,-305 440.51,-262.71 440.51,-213.32 440.51,-185.35"/>
<polygon fill="black" stroke="black" points="435.51,-181.05 445.51,-181.05 445.51,-183.05 435.51,-183.05 435.51,-181.05"/>
<polyline fill="none" stroke="black" points="440.51,-180.05 440.51,-185.05 "/>
</g>
<!-- r12 -->
<g id="node23" class="node">
<title>r12</title>
<ellipse fill="yellow" stroke="black" cx="210.51" cy="-234" rx="27" ry="18"/>
<text text-anchor="middle" x="210.51" y="-230.3" font-family="Times,serif" font-size="14.00">1</text>
</g>
<!-- A&#45;&gt;r12 -->
<g id="edge36" class="edge">
<title>A&#45;&gt;r12</title>
<path fill="none" stroke="black" d="M216.51,-791.95C216.51,-765.29 216.51,-712.11 216.51,-667 216.51,-667 216.51,-667 216.51,-377 216.51,-334.67 213.82,-285.3 212.04,-257.34"/>
<polygon fill="black" stroke="black" points="206.77,-253.36 216.75,-252.72 216.88,-254.71 206.9,-255.36 206.77,-253.36"/>
<polyline fill="none" stroke="black" points="211.7,-252.04 212.02,-257.03 "/>
</g>
<!-- C -->
<g id="node2" class="node">
<title>C</title>
<polygon fill="cyan" stroke="black" points="467.51,-108 413.51,-108 413.51,-72 467.51,-72 467.51,-108"/>
<text text-anchor="middle" x="440.51" y="-86.3" font-family="Times,serif" font-size="14.00">C</text>
</g>
<!-- r11 -->
<g id="node22" class="node">
<title>r11</title>
<ellipse fill="yellow" stroke="black" cx="412.51" cy="-18" rx="27" ry="18"/>
<text text-anchor="middle" x="412.51" y="-14.3" font-family="Times,serif" font-size="14.00">1</text>
</g>
<!-- C&#45;&gt;r11 -->
<g id="edge34" class="edge">
<title>C&#45;&gt;r11</title>
<path fill="none" stroke="black" d="M433.59,-71.7C429.81,-62.23 425.08,-50.43 421.07,-40.39"/>
<polygon fill="black" stroke="black" points="414.89,-38.41 424.18,-34.69 424.92,-36.55 415.63,-40.26 414.89,-38.41"/>
<polyline fill="none" stroke="black" points="419.16,-35.62 421.02,-40.26 "/>
</g>
<!-- DA -->
<g id="node3" class="node">
<title>DA</title>
<polygon fill="cyan" stroke="black" points="87.51,-540 33.51,-540 33.51,-504 87.51,-504 87.51,-540"/>
<text text-anchor="middle" x="60.51" y="-518.3" font-family="Times,serif" font-size="14.00">DA</text>
</g>
<!-- DA&#45;&gt;r0 -->
<g id="edge2" class="edge">
<title>DA&#45;&gt;r0</title>
<path fill="none" stroke="black" d="M38.36,-540.13C28.1,-549.48 17,-562 11.51,-576 -5.99,-620.71 -1.23,-638.31 13.51,-684 17.52,-696.41 25.41,-708.57 32.78,-718.11"/>
<polygon fill="black" stroke="black" points="39.19,-718.13 31.36,-724.36 30.12,-722.79 37.95,-716.57 39.19,-718.13"/>
<polyline fill="none" stroke="black" points="35.9,-722.03 32.79,-718.11 "/>
</g>
<!-- r5 -->
<g id="node16" class="node">
<title>r5</title>
<ellipse fill="yellow" stroke="black" cx="60.51" cy="-450" rx="27" ry="18"/>
<text text-anchor="middle" x="60.51" y="-446.3" font-family="Times,serif" font-size="14.00">50</text>
</g>
<!-- DA&#45;&gt;r5 -->
<g id="edge16" class="edge">
<title>DA&#45;&gt;r5</title>
<path fill="none" stroke="black" d="M54.6,-503.7C53.63,-494.32 53.51,-482.64 54.22,-472.66"/>
<polygon fill="black" stroke="black" points="49.6,-468.17 59.56,-469.06 59.38,-471.06 49.42,-470.17 49.6,-468.17"/>
<polyline fill="none" stroke="black" points="54.67,-467.62 54.23,-472.6 "/>
</g>
<!-- DR -->
<g id="node4" class="node">
<title>DR</title>
<polygon fill="cyan" stroke="black" points="302.51,-540 248.51,-540 248.51,-504 302.51,-504 302.51,-540"/>
<text text-anchor="middle" x="275.51" y="-518.3" font-family="Times,serif" font-size="14.00">DR</text>
</g>
<!-- DR&#45;&gt;r2 -->
<g id="edge8" class="edge">
<title>DR&#45;&gt;r2</title>
<path fill="none" stroke="black" d="M274.76,-540.18C274.33,-550.55 273.81,-564.03 273.51,-576 272.28,-625.4 271.79,-683.34 271.61,-714.48"/>
<polygon fill="black" stroke="black" points="276.59,-718.63 266.59,-718.58 266.6,-716.58 276.6,-716.63 276.59,-718.63"/>
<polyline fill="none" stroke="black" points="271.59,-719.61 271.61,-714.61 "/>
</g>
<!-- r7 -->
<g id="node18" class="node">
<title>r7</title>
<ellipse fill="yellow" stroke="black" cx="275.51" cy="-450" rx="31.4" ry="18"/>
<text text-anchor="middle" x="275.51" y="-446.3" font-family="Times,serif" font-size="14.00">0.01</text>
</g>
<!-- DR&#45;&gt;r7 -->
<g id="edge22" class="edge">
<title>DR&#45;&gt;r7</title>
<path fill="none" stroke="black" d="M269.6,-503.7C268.65,-494.46 268.51,-482.98 269.19,-473.11"/>
<polygon fill="black" stroke="black" points="264.55,-468.67 274.52,-469.53 274.34,-471.52 264.38,-470.66 264.55,-468.67"/>
<polyline fill="none" stroke="black" points="269.62,-468.1 269.19,-473.09 "/>
</g>
<!-- D_A -->
<g id="node5" class="node">
<title>D_A</title>
<polygon fill="cyan" stroke="black" points="76.51,-684 22.51,-684 22.51,-648 76.51,-648 76.51,-684"/>
<text text-anchor="middle" x="49.51" y="-662.3" font-family="Times,serif" font-size="14.00">D_A</text>
</g>
<!-- r1 -->
<g id="node12" class="node">
<title>r1</title>
<ellipse fill="yellow" stroke="black" cx="123.51" cy="-594" rx="27" ry="18"/>
<text text-anchor="middle" x="123.51" y="-590.3" font-family="Times,serif" font-size="14.00">50</text>
</g>
<!-- D_A&#45;&gt;r1 -->
<g id="edge4" class="edge">
<title>D_A&#45;&gt;r1</title>
<path fill="none" stroke="black" d="M67.81,-647.7C79.03,-637.08 93.38,-623.5 104.7,-612.79"/>
<polygon fill="black" stroke="black" points="104.26,-606.33 111.13,-613.6 109.68,-614.97 102.8,-607.71 104.26,-606.33"/>
<polyline fill="none" stroke="black" points="108.42,-609.28 104.79,-612.71 "/>
</g>
<!-- r4 -->
<g id="node15" class="node">
<title>r4</title>
<ellipse fill="yellow" stroke="black" cx="49.51" cy="-594" rx="28.7" ry="18"/>
<text text-anchor="middle" x="49.51" y="-590.3" font-family="Times,serif" font-size="14.00">500</text>
</g>
<!-- D_A&#45;&gt;r4 -->
<g id="edge13" class="edge">
<title>D_A&#45;&gt;r4</title>
<path fill="none" stroke="black" d="M43.6,-647.7C42.63,-638.32 42.51,-626.64 43.22,-616.66"/>
<polygon fill="black" stroke="black" points="38.6,-612.17 48.56,-613.06 48.38,-615.06 38.42,-614.17 38.6,-612.17"/>
<polyline fill="none" stroke="black" points="43.67,-611.62 43.23,-616.6 "/>
</g>
<!-- D_R -->
<g id="node6" class="node">
<title>D_R</title>
<polygon fill="cyan" stroke="black" points="336.51,-684 282.51,-684 282.51,-648 336.51,-648 336.51,-684"/>
<text text-anchor="middle" x="309.51" y="-662.3" font-family="Times,serif" font-size="14.00">D_R</text>
</g>
<!-- r3 -->
<g id="node14" class="node">
<title>r3</title>
<ellipse fill="yellow" stroke="black" cx="383.51" cy="-594" rx="28.7" ry="18"/>
<text text-anchor="middle" x="383.51" y="-590.3" font-family="Times,serif" font-size="14.00">100</text>
</g>
<!-- D_R&#45;&gt;r3 -->
<g id="edge10" class="edge">
<title>D_R&#45;&gt;r3</title>
<path fill="none" stroke="black" d="M327.81,-647.7C338.88,-637.22 352.99,-623.87 364.24,-613.23"/>
<polygon fill="black" stroke="black" points="363.77,-606.79 370.64,-614.06 369.19,-615.43 362.32,-608.17 363.77,-606.79"/>
<polyline fill="none" stroke="black" points="367.93,-609.74 364.3,-613.17 "/>
</g>
<!-- r6 -->
<g id="node17" class="node">
<title>r6</title>
<ellipse fill="yellow" stroke="black" cx="309.51" cy="-594" rx="27" ry="18"/>
<text text-anchor="middle" x="309.51" y="-590.3" font-family="Times,serif" font-size="14.00">50</text>
</g>
<!-- D_R&#45;&gt;r6 -->
<g id="edge19" class="edge">
<title>D_R&#45;&gt;r6</title>
<path fill="none" stroke="black" d="M303.6,-647.7C302.63,-638.32 302.51,-626.64 303.22,-616.66"/>
<polygon fill="black" stroke="black" points="298.6,-612.17 308.56,-613.06 308.38,-615.06 298.42,-614.17 298.6,-612.17"/>
<polyline fill="none" stroke="black" points="303.67,-611.62 303.23,-616.6 "/>
</g>
<!-- MA -->
<g id="node7" class="node">
<title>MA</title>
<polygon fill="cyan" stroke="black" points="142.51,-396 88.51,-396 88.51,-360 142.51,-360 142.51,-396"/>
<text text-anchor="middle" x="115.51" y="-374.3" font-family="Times,serif" font-size="14.00">MA</text>
</g>
<!-- r8 -->
<g id="node19" class="node">
<title>r8</title>
<ellipse fill="yellow" stroke="black" cx="161.51" cy="-306" rx="27" ry="18"/>
<text text-anchor="middle" x="161.51" y="-302.3" font-family="Times,serif" font-size="14.00">50</text>
</g>
<!-- MA&#45;&gt;r8 -->
<g id="edge25" class="edge">
<title>MA&#45;&gt;r8</title>
<path fill="none" stroke="black" d="M120.97,-359.7C126.75,-349.26 135.45,-335.97 143.43,-325.35"/>
<polygon fill="black" stroke="black" points="141.99,-319.02 149.92,-325.12 148.7,-326.71 140.78,-320.61 141.99,-319.02"/>
<polyline fill="none" stroke="black" points="146.57,-321.28 143.52,-325.24 "/>
</g>
<!-- r14 -->
<g id="node25" class="node">
<title>r14</title>
<ellipse fill="yellow" stroke="black" cx="119.51" cy="-234" rx="27" ry="18"/>
<text text-anchor="middle" x="119.51" y="-230.3" font-family="Times,serif" font-size="14.00">10</text>
</g>
<!-- MA&#45;&gt;r14 -->
<g id="edge40" class="edge">
<title>MA&#45;&gt;r14</title>
<path fill="none" stroke="black" d="M116,-359.87C116.72,-334.18 118.09,-285.65 118.89,-257.25"/>
<polygon fill="black" stroke="black" points="114,-253.05 124,-253.33 123.94,-255.33 113.95,-255.05 114,-253.05"/>
<polyline fill="none" stroke="black" points="119.03,-252.19 118.89,-257.19 "/>
</g>
<!-- MR -->
<g id="node8" class="node">
<title>MR</title>
<polygon fill="cyan" stroke="black" points="356.51,-396 302.51,-396 302.51,-360 356.51,-360 356.51,-396"/>
<text text-anchor="middle" x="329.51" y="-374.3" font-family="Times,serif" font-size="14.00">MR</text>
</g>
<!-- r9 -->
<g id="node20" class="node">
<title>r9</title>
<ellipse fill="yellow" stroke="black" cx="329.51" cy="-306" rx="27" ry="18"/>
<text text-anchor="middle" x="329.51" y="-302.3" font-family="Times,serif" font-size="14.00">5</text>
</g>
<!-- MR&#45;&gt;r9 -->
<g id="edge28" class="edge">
<title>MR&#45;&gt;r9</title>
<path fill="none" stroke="black" d="M323.6,-359.7C322.63,-350.32 322.51,-338.64 323.22,-328.66"/>
<polygon fill="black" stroke="black" points="318.6,-324.17 328.56,-325.06 328.38,-327.06 318.42,-326.17 318.6,-324.17"/>
<polyline fill="none" stroke="black" points="323.67,-323.62 323.23,-328.6 "/>
</g>
<!-- r15 -->
<g id="node26" class="node">
<title>r15</title>
<ellipse fill="yellow" stroke="black" cx="258.51" cy="-162" rx="27" ry="18"/>
<text text-anchor="middle" x="258.51" y="-158.3" font-family="Times,serif" font-size="14.00">0.5</text>
</g>
<!-- MR&#45;&gt;r15 -->
<g id="edge42" class="edge">
<title>MR&#45;&gt;r15</title>
<path fill="none" stroke="black" d="M315.37,-359.84C307.85,-349.92 299.04,-336.88 293.51,-324 273.36,-277.04 264.29,-217.21 260.65,-185.34"/>
<polygon fill="black" stroke="black" points="255.21,-181.65 265.15,-180.55 265.37,-182.54 255.43,-183.63 255.21,-181.65"/>
<polyline fill="none" stroke="black" points="260.07,-180.1 260.62,-185.07 "/>
</g>
<!-- R -->
<g id="node9" class="node">
<title>R</title>
<polygon fill="cyan" stroke="black" points="359.51,-252 305.51,-252 305.51,-216 359.51,-216 359.51,-252"/>
<text text-anchor="middle" x="332.51" y="-230.3" font-family="Times,serif" font-size="14.00">R</text>
</g>
<!-- R&#45;&gt;r10 -->
<g id="edge32" class="edge">
<title>R&#45;&gt;r10</title>
<path fill="none" stroke="black" d="M358.93,-215.88C376.9,-204.23 400.42,-188.99 417.59,-177.86"/>
<polygon fill="black" stroke="black" points="418.26,-171.47 423.69,-179.86 422.02,-180.95 416.58,-172.56 418.26,-171.47"/>
<polyline fill="none" stroke="black" points="421.81,-175.12 417.62,-177.84 "/>
</g>
<!-- r13 -->
<g id="node24" class="node">
<title>r13</title>
<ellipse fill="yellow" stroke="black" cx="330.51" cy="-162" rx="27" ry="18"/>
<text text-anchor="middle" x="330.51" y="-158.3" font-family="Times,serif" font-size="14.00">0.2</text>
</g>
<!-- R&#45;&gt;r13 -->
<g id="edge38" class="edge">
<title>R&#45;&gt;r13</title>
<path fill="none" stroke="black" d="M332.02,-215.7C331.76,-206.46 331.43,-194.98 331.15,-185.11"/>
<polygon fill="black" stroke="black" points="326.03,-181.25 336.03,-180.96 336.09,-182.96 326.09,-183.25 326.03,-181.25"/>
<polyline fill="none" stroke="black" points="331,-180.1 331.15,-185.1 "/>
</g>
<!-- env -->
<g id="node10" class="node">
<title>env</title>
<polygon fill="cyan" stroke="black" points="258.51,-108 204.51,-108 204.51,-72 258.51,-72 258.51,-108"/>
<text text-anchor="middle" x="231.51" y="-86.3" font-family="Times,serif" font-size="14.00">env</text>
</g>
<!-- r0&#45;&gt;D_A -->
<g id="edge3" class="edge">
<title>r0&#45;&gt;D_A</title>
<path fill="none" stroke="black" d="M49.51,-719.7C49.51,-711.98 49.51,-702.71 49.51,-694.11"/>
<polygon fill="black" stroke="black" points="53.01,-694.1 49.51,-684.1 46.01,-694.1 53.01,-694.1"/>
</g>
<!-- r1&#45;&gt;A -->
<g id="edge6" class="edge">
<title>r1&#45;&gt;A</title>
<path fill="none" stroke="black" d="M124.92,-612.06C128.07,-642.69 137.64,-708.24 164.51,-756 170.48,-766.6 179.11,-776.59 187.64,-784.97"/>
<polygon fill="black" stroke="black" points="185.34,-787.62 195.03,-791.9 190.13,-782.51 185.34,-787.62"/>
</g>
<!-- r1&#45;&gt;DA -->
<g id="edge5" class="edge">
<title>r1&#45;&gt;DA</title>
<path fill="none" stroke="black" d="M110.15,-578.15C102.15,-569.26 91.78,-557.74 82.59,-547.53"/>
<polygon fill="black" stroke="black" points="85.14,-545.13 75.85,-540.04 79.94,-549.81 85.14,-545.13"/>
</g>
<!-- r2&#45;&gt;D_R -->
<g id="edge9" class="edge">
<title>r2&#45;&gt;D_R</title>
<path fill="none" stroke="black" d="M280.33,-720.76C284.8,-712.53 290.34,-702.32 295.39,-693.02"/>
<polygon fill="black" stroke="black" points="298.52,-694.58 300.22,-684.12 292.37,-691.24 298.52,-694.58"/>
</g>
<!-- r3&#45;&gt;A -->
<g id="edge12" class="edge">
<title>r3&#45;&gt;A</title>
<path fill="none" stroke="black" d="M379.34,-612.13C370.8,-644.02 348.59,-713.17 307.51,-756 292.21,-771.96 271.06,-784.66 253,-793.63"/>
<polygon fill="black" stroke="black" points="251.41,-790.51 243.89,-797.98 254.42,-796.83 251.41,-790.51"/>
</g>
<!-- r3&#45;&gt;DR -->
<g id="edge11" class="edge">
<title>r3&#45;&gt;DR</title>
<path fill="none" stroke="black" d="M364.21,-580.49C349.29,-570.82 328.26,-557.19 310.42,-545.62"/>
<polygon fill="black" stroke="black" points="312.25,-542.64 301.96,-540.14 308.45,-548.52 312.25,-542.64"/>
</g>
<!-- r4&#45;&gt;D_A -->
<g id="edge15" class="edge">
<title>r4&#45;&gt;D_A</title>
<path fill="none" stroke="black" d="M55.36,-611.62C56.2,-619.36 56.46,-628.76 56.12,-637.51"/>
<polygon fill="black" stroke="black" points="52.62,-637.48 55.43,-647.7 59.6,-637.96 52.62,-637.48"/>
</g>
<!-- r4&#45;&gt;MA -->
<g id="edge14" class="edge">
<title>r4&#45;&gt;MA</title>
<path fill="none" stroke="black" d="M66.3,-579.04C76.83,-569.27 89.67,-555.26 96.51,-540 116.07,-496.39 118.04,-439.8 117.15,-406.63"/>
<polygon fill="black" stroke="black" points="120.64,-406.2 116.76,-396.34 113.64,-406.46 120.64,-406.2"/>
</g>
<!-- r5&#45;&gt;DA -->
<g id="edge18" class="edge">
<title>r5&#45;&gt;DA</title>
<path fill="none" stroke="black" d="M66.36,-467.62C67.2,-475.36 67.46,-484.76 67.12,-493.51"/>
<polygon fill="black" stroke="black" points="63.62,-493.48 66.43,-503.7 70.6,-493.96 63.62,-493.48"/>
</g>
<!-- r5&#45;&gt;MA -->
<g id="edge17" class="edge">
<title>r5&#45;&gt;MA</title>
<path fill="none" stroke="black" d="M72.45,-433.81C79.26,-425.14 87.97,-414.05 95.78,-404.12"/>
<polygon fill="black" stroke="black" points="98.63,-406.15 102.06,-396.13 93.13,-401.83 98.63,-406.15"/>
</g>
<!-- r6&#45;&gt;D_R -->
<g id="edge21" class="edge">
<title>r6&#45;&gt;D_R</title>
<path fill="none" stroke="black" d="M315.36,-611.62C316.2,-619.36 316.46,-628.76 316.12,-637.51"/>
<polygon fill="black" stroke="black" points="312.62,-637.48 315.43,-647.7 319.6,-637.96 312.62,-637.48"/>
</g>
<!-- r6&#45;&gt;MR -->
<g id="edge20" class="edge">
<title>r6&#45;&gt;MR</title>
<path fill="none" stroke="black" d="M311.12,-575.85C314.58,-538.83 322.77,-451.18 326.95,-406.39"/>
<polygon fill="black" stroke="black" points="330.46,-406.51 327.9,-396.23 323.49,-405.86 330.46,-406.51"/>
</g>
<!-- r7&#45;&gt;DR -->
<g id="edge24" class="edge">
<title>r7&#45;&gt;DR</title>
<path fill="none" stroke="black" d="M281.41,-468.1C282.21,-475.79 282.45,-485.05 282.12,-493.67"/>
<polygon fill="black" stroke="black" points="278.62,-493.48 281.43,-503.7 285.61,-493.96 278.62,-493.48"/>
</g>
<!-- r7&#45;&gt;MR -->
<g id="edge23" class="edge">
<title>r7&#45;&gt;MR</title>
<path fill="none" stroke="black" d="M287.77,-433.12C294.31,-424.63 302.53,-413.98 309.94,-404.38"/>
<polygon fill="black" stroke="black" points="312.84,-406.35 316.17,-396.29 307.3,-402.07 312.84,-406.35"/>
</g>
<!-- r8&#45;&gt;A -->
<g id="edge27" class="edge">
<title>r8&#45;&gt;A</title>
<path fill="none" stroke="black" d="M164.87,-323.97C169.83,-350.52 178.51,-403.56 178.51,-449 178.51,-667 178.51,-667 178.51,-667 178.51,-708.37 193.75,-754.28 204.93,-782.39"/>
<polygon fill="black" stroke="black" points="201.79,-783.98 208.82,-791.91 208.27,-781.33 201.79,-783.98"/>
</g>
<!-- r8&#45;&gt;MA -->
<g id="edge26" class="edge">
<title>r8&#45;&gt;MA</title>
<path fill="none" stroke="black" d="M156.17,-324.1C151.64,-332.3 145.29,-342.28 138.89,-351.36"/>
<polygon fill="black" stroke="black" points="135.88,-349.56 132.8,-359.7 141.53,-353.69 135.88,-349.56"/>
</g>
<!-- r9&#45;&gt;MR -->
<g id="edge29" class="edge">
<title>r9&#45;&gt;MR</title>
<path fill="none" stroke="black" d="M335.36,-323.62C336.2,-331.36 336.46,-340.76 336.12,-349.51"/>
<polygon fill="black" stroke="black" points="332.62,-349.48 335.43,-359.7 339.6,-349.96 332.62,-349.48"/>
</g>
<!-- r9&#45;&gt;R -->
<g id="edge30" class="edge">
<title>r9&#45;&gt;R</title>
<path fill="none" stroke="black" d="M330.26,-287.7C330.59,-279.98 330.98,-270.71 331.35,-262.11"/>
<polygon fill="black" stroke="black" points="334.85,-262.25 331.78,-252.1 327.86,-261.95 334.85,-262.25"/>
</g>
<!-- r10&#45;&gt;C -->
<g id="edge33" class="edge">
<title>r10&#45;&gt;C</title>
<path fill="none" stroke="black" d="M440.51,-143.7C440.51,-135.98 440.51,-126.71 440.51,-118.11"/>
<polygon fill="black" stroke="black" points="444.01,-118.1 440.51,-108.1 437.01,-118.1 444.01,-118.1"/>
</g>
<!-- r11&#45;&gt;R -->
<g id="edge35" class="edge">
<title>r11&#45;&gt;R</title>
<path fill="none" stroke="black" d="M409.36,-36.02C403.43,-66.04 389.14,-129.93 366.51,-180 362.35,-189.22 356.75,-198.7 351.3,-207.04"/>
<polygon fill="black" stroke="black" points="348.23,-205.35 345.53,-215.59 354.03,-209.27 348.23,-205.35"/>
</g>
<!-- r12&#45;&gt;env -->
<g id="edge37" class="edge">
<title>r12&#45;&gt;env</title>
<path fill="none" stroke="black" d="M212.64,-215.91C214.92,-197.98 218.71,-168.97 222.51,-144 223.8,-135.57 225.31,-126.4 226.73,-118.1"/>
<polygon fill="black" stroke="black" points="230.19,-118.61 228.45,-108.16 223.29,-117.42 230.19,-118.61"/>
</g>
<!-- r13&#45;&gt;env -->
<g id="edge39" class="edge">
<title>r13&#45;&gt;env</title>
<path fill="none" stroke="black" d="M312.36,-148.16C298.98,-138.7 280.42,-125.58 264.45,-114.29"/>
<polygon fill="black" stroke="black" points="266.08,-111.16 255.9,-108.24 262.04,-116.87 266.08,-111.16"/>
</g>
<!-- r14&#45;&gt;env -->
<g id="edge41" class="edge">
<title>r14&#45;&gt;env</title>
<path fill="none" stroke="black" d="M131.5,-217.8C150.61,-193.58 188.18,-145.94 211.44,-116.45"/>
<polygon fill="black" stroke="black" points="214.43,-118.31 217.88,-108.29 208.94,-113.97 214.43,-118.31"/>
</g>
<!-- r15&#45;&gt;env -->
<g id="edge43" class="edge">
<title>r15&#45;&gt;env</title>
<path fill="none" stroke="black" d="M252.12,-144.41C249.08,-136.54 245.37,-126.93 241.94,-118.04"/>
<polygon fill="black" stroke="black" points="245.11,-116.52 238.24,-108.45 238.58,-119.04 245.11,-116.52"/>
</g>
</g>
</svg>
