<?xml version="1.0" encoding="UTF-8" standalone="no"?>
<!DOCTYPE svg PUBLIC "-//W3C//DTD SVG 1.1//EN"
 "http://www.w3.org/Graphics/SVG/1.1/DTD/svg11.dtd">
<!-- Generated by graphviz version 2.43.0 (0)
 -->
<!-- Title: %3 Pages: 1 -->
<svg width="346pt" height="476pt"
 viewBox="0.00 0.00 346.04 476.00" xmlns="http://www.w3.org/2000/svg" xmlns:xlink="http://www.w3.org/1999/xlink">
<g id="graph0" class="graph" transform="scale(1 1) rotate(0) translate(4 472)">
<title>%3</title>
<polygon fill="white" stroke="transparent" points="-4,4 -4,-472 342.04,-472 342.04,4 -4,4"/>
<!-- E -->
<g id="node1" class="node">
<title>E</title>
<polygon fill="cyan" stroke="black" points="94.89,-468 40.89,-468 40.89,-432 94.89,-432 94.89,-468"/>
<text text-anchor="middle" x="67.89" y="-446.3" font-family="Times,serif" font-size="14.00">E</text>
</g>
<!-- r1 -->
<g id="node7" class="node">
<title>r1</title>
<ellipse fill="yellow" stroke="black" cx="131.89" cy="-378" rx="54.69" ry="18"/>
<text text-anchor="middle" x="131.89" y="-374.3" font-family="Times,serif" font-size="14.00">0.196078</text>
</g>
<!-- E&#45;&gt;r1 -->
<g id="edge5" class="edge">
<title>E&#45;&gt;r1</title>
<path fill="none" stroke="black" d="M83.71,-431.7C92.6,-421.97 103.75,-409.78 113.08,-399.57"/>
<polygon fill="black" stroke="black" points="112.33,-392.99 119.71,-399.73 118.36,-401.21 110.98,-394.46 112.33,-392.99"/>
<polyline fill="none" stroke="black" points="116.7,-395.62 113.32,-399.31 "/>
</g>
<!-- H -->
<g id="node2" class="node">
<title>H</title>
<polygon fill="cyan" stroke="black" points="292.89,-180 238.89,-180 238.89,-144 292.89,-144 292.89,-180"/>
<text text-anchor="middle" x="265.89" y="-158.3" font-family="Times,serif" font-size="14.00">H</text>
</g>
<!-- r4 -->
<g id="node10" class="node">
<title>r4</title>
<ellipse fill="yellow" stroke="black" cx="262.89" cy="-90" rx="60.39" ry="18"/>
<text text-anchor="middle" x="262.89" y="-86.3" font-family="Times,serif" font-size="14.00">0.0988142</text>
</g>
<!-- H&#45;&gt;r4 -->
<g id="edge11" class="edge">
<title>H&#45;&gt;r4</title>
<path fill="none" stroke="black" d="M265.15,-143.7C264.76,-134.46 264.26,-122.98 263.84,-113.11"/>
<polygon fill="black" stroke="black" points="258.67,-109.32 268.67,-108.89 268.75,-110.89 258.76,-111.32 258.67,-109.32"/>
<polyline fill="none" stroke="black" points="263.63,-108.1 263.84,-113.1 "/>
</g>
<!-- I -->
<g id="node3" class="node">
<title>I</title>
<polygon fill="cyan" stroke="black" points="180.89,-324 126.89,-324 126.89,-288 180.89,-288 180.89,-324"/>
<text text-anchor="middle" x="153.89" y="-302.3" font-family="Times,serif" font-size="14.00">I</text>
</g>
<!-- r0 -->
<g id="node6" class="node">
<title>r0</title>
<ellipse fill="yellow" stroke="black" cx="68.89" cy="-234" rx="68.79" ry="18"/>
<text text-anchor="middle" x="68.89" y="-230.3" font-family="Times,serif" font-size="14.00">7.74194e&#45;05</text>
</g>
<!-- I&#45;&gt;r0 -->
<g id="edge2" class="edge">
<title>I&#45;&gt;r0</title>
<path fill="none" stroke="black" d="M126.97,-287.7C113.93,-277.8 98.73,-265.35 87.05,-255.03"/>
<polygon fill="black" stroke="black" points="80.65,-256.02 87.31,-248.56 88.8,-249.89 82.14,-257.35 80.65,-256.02"/>
<polyline fill="none" stroke="black" points="83.23,-251.62 86.96,-254.95 "/>
</g>
<!-- r2 -->
<g id="node8" class="node">
<title>r2</title>
<ellipse fill="yellow" stroke="black" cx="165.89" cy="-162" rx="54.69" ry="18"/>
<text text-anchor="middle" x="165.89" y="-158.3" font-family="Times,serif" font-size="14.00">0.322581</text>
</g>
<!-- I&#45;&gt;r2 -->
<g id="edge7" class="edge">
<title>I&#45;&gt;r2</title>
<path fill="none" stroke="black" d="M155.34,-287.87C157.51,-262.18 161.61,-213.65 164.01,-185.25"/>
<polygon fill="black" stroke="black" points="159.37,-180.76 169.34,-181.61 169.17,-183.6 159.21,-182.76 159.37,-180.76"/>
<polyline fill="none" stroke="black" points="164.44,-180.19 164.02,-185.17 "/>
</g>
<!-- r3 -->
<g id="node9" class="node">
<title>r3</title>
<ellipse fill="yellow" stroke="black" cx="265.89" cy="-234" rx="72.29" ry="18"/>
<text text-anchor="middle" x="265.89" y="-230.3" font-family="Times,serif" font-size="14.00">0.000290061</text>
</g>
<!-- I&#45;&gt;r3 -->
<g id="edge9" class="edge">
<title>I&#45;&gt;r3</title>
<path fill="none" stroke="black" d="M181.01,-288.05C197.6,-277.69 218.85,-264.4 235.94,-253.72"/>
<polygon fill="black" stroke="black" points="236.69,-247.36 241.99,-255.84 240.29,-256.9 234.99,-248.42 236.69,-247.36"/>
<polyline fill="none" stroke="black" points="240.19,-251.07 235.95,-253.72 "/>
</g>
<!-- R -->
<g id="node4" class="node">
<title>R</title>
<polygon fill="cyan" stroke="black" points="242.89,-36 188.89,-36 188.89,0 242.89,0 242.89,-36"/>
<text text-anchor="middle" x="215.89" y="-14.3" font-family="Times,serif" font-size="14.00">R</text>
</g>
<!-- S -->
<g id="node5" class="node">
<title>S</title>
<polygon fill="cyan" stroke="black" points="108.89,-324 54.89,-324 54.89,-288 108.89,-288 108.89,-324"/>
<text text-anchor="middle" x="81.89" y="-302.3" font-family="Times,serif" font-size="14.00">S</text>
</g>
<!-- S&#45;&gt;r0 -->
<g id="edge1" class="edge">
<title>S&#45;&gt;r0</title>
<path fill="none" stroke="black" d="M78.68,-287.7C76.96,-278.46 74.83,-266.98 73,-257.11"/>
<polygon fill="black" stroke="black" points="67.34,-254 77.17,-252.17 77.53,-254.14 67.7,-255.97 67.34,-254"/>
<polyline fill="none" stroke="black" points="72.07,-252.1 72.98,-257.02 "/>
</g>
<!-- r0&#45;&gt;E -->
<g id="edge3" class="edge">
<title>r0&#45;&gt;E</title>
<path fill="none" stroke="black" d="M59.35,-252.07C54.25,-262.18 48.5,-275.43 45.89,-288 36.16,-334.86 48.99,-390.31 58.75,-422.39"/>
<polygon fill="black" stroke="black" points="55.42,-423.47 61.78,-431.95 62.09,-421.36 55.42,-423.47"/>
</g>
<!-- r0&#45;&gt;I -->
<g id="edge4" class="edge">
<title>r0&#45;&gt;I</title>
<path fill="none" stroke="black" d="M93.97,-250.91C105.82,-259.82 119.75,-271.1 131.27,-281.06"/>
<polygon fill="black" stroke="black" points="128.98,-283.71 138.8,-287.7 133.61,-278.46 128.98,-283.71"/>
</g>
<!-- r1&#45;&gt;I -->
<g id="edge6" class="edge">
<title>r1&#45;&gt;I</title>
<path fill="none" stroke="black" d="M137.22,-360.05C139.67,-352.26 142.64,-342.82 145.38,-334.08"/>
<polygon fill="black" stroke="black" points="148.81,-334.86 148.46,-324.28 142.13,-332.77 148.81,-334.86"/>
</g>
<!-- r2&#45;&gt;R -->
<g id="edge8" class="edge">
<title>r2&#45;&gt;R</title>
<path fill="none" stroke="black" d="M170.82,-143.79C176.09,-125.75 184.92,-96.66 193.89,-72 197.08,-63.25 200.87,-53.83 204.4,-45.39"/>
<polygon fill="black" stroke="black" points="207.68,-46.61 208.37,-36.03 201.24,-43.87 207.68,-46.61"/>
</g>
<!-- r3&#45;&gt;H -->
<g id="edge10" class="edge">
<title>r3&#45;&gt;H</title>
<path fill="none" stroke="black" d="M265.89,-215.7C265.89,-207.98 265.89,-198.71 265.89,-190.11"/>
<polygon fill="black" stroke="black" points="269.39,-190.1 265.89,-180.1 262.39,-190.1 269.39,-190.1"/>
</g>
<!-- r4&#45;&gt;R -->
<g id="edge12" class="edge">
<title>r4&#45;&gt;R</title>
<path fill="none" stroke="black" d="M251.52,-72.05C246,-63.84 239.25,-53.79 233.12,-44.66"/>
<polygon fill="black" stroke="black" points="235.97,-42.63 227.49,-36.28 230.16,-46.53 235.97,-42.63"/>
</g>
</g>
</svg>
