<?xml version="1.0" encoding="UTF-8" standalone="no"?>
<!DOCTYPE svg PUBLIC "-//W3C//DTD SVG 1.1//EN"
 "http://www.w3.org/Graphics/SVG/1.1/DTD/svg11.dtd">
<!-- Generated by graphviz version 2.43.0 (0)
 -->
<!-- Title: %3 Pages: 1 -->
<svg width="144pt" height="188pt"
 viewBox="0.00 0.00 144.05 188.00" xmlns="http://www.w3.org/2000/svg" xmlns:xlink="http://www.w3.org/1999/xlink">
<g id="graph0" class="graph" transform="scale(1 1) rotate(0) translate(4 184)">
<title>%3</title>
<polygon fill="white" stroke="transparent" points="-4,4 -4,-184 140.05,-184 140.05,4 -4,4"/>
<!-- A -->
<g id="node1" class="node">
<title>A</title>
<polygon fill="cyan" stroke="black" points="64.05,-180 10.05,-180 10.05,-144 64.05,-144 64.05,-180"/>
<text text-anchor="middle" x="37.05" y="-158.3" font-family="Times,serif" font-size="14.00">A</text>
</g>
<!-- r0 -->
<g id="node4" class="node">
<title>r0</title>
<ellipse fill="yellow" stroke="black" cx="37.05" cy="-90" rx="37.09" ry="18"/>
<text text-anchor="middle" x="37.05" y="-86.3" font-family="Times,serif" font-size="14.00">0.001</text>
</g>
<!-- A&#45;&gt;r0 -->
<g id="edge1" class="edge">
<title>A&#45;&gt;r0</title>
<path fill="none" stroke="black" d="M37.05,-143.7C37.05,-134.46 37.05,-122.98 37.05,-113.11"/>
<polygon fill="black" stroke="black" points="32.05,-109.1 42.05,-109.1 42.05,-111.1 32.05,-111.1 32.05,-109.1"/>
<polyline fill="none" stroke="black" points="37.05,-108.1 37.05,-113.1 "/>
</g>
<!-- B -->
<g id="node2" class="node">
<title>B</title>
<polygon fill="cyan" stroke="black" points="136.05,-36 82.05,-36 82.05,0 136.05,0 136.05,-36"/>
<text text-anchor="middle" x="109.05" y="-14.3" font-family="Times,serif" font-size="14.00">B</text>
</g>
<!-- C -->
<g id="node3" class="node">
<title>C</title>
<polygon fill="cyan" stroke="black" points="64.05,-36 10.05,-36 10.05,0 64.05,0 64.05,-36"/>
<text text-anchor="middle" x="37.05" y="-14.3" font-family="Times,serif" font-size="14.00">C</text>
</g>
<!-- C&#45;&gt;r0 -->
<g id="edge2" class="edge">
<title>C&#45;&gt;r0</title>
<path fill="none" stroke="black" d="M42.96,-36.28C43.92,-45.56 44.05,-57.12 43.36,-67.04"/>
<polygon fill="black" stroke="black" points="47.99,-71.49 38.03,-70.62 38.2,-68.63 48.17,-69.5 47.99,-71.49"/>
<polyline fill="none" stroke="black" points="42.92,-72.05 43.36,-67.07 "/>
</g>
<!-- r0&#45;&gt;B -->
<g id="edge3" class="edge">
<title>r0&#45;&gt;B</title>
<path fill="none" stroke="black" d="M53.03,-73.46C62.16,-64.58 73.82,-53.25 84.13,-43.23"/>
<polygon fill="black" stroke="black" points="86.61,-45.69 91.34,-36.21 81.73,-40.67 86.61,-45.69"/>
</g>
<!-- r0&#45;&gt;C -->
<g id="edge4" class="edge">
<title>r0&#45;&gt;C</title>
<path fill="none" stroke="black" d="M31.17,-72.05C30.35,-64.35 30.11,-55.03 30.44,-46.36"/>
<polygon fill="black" stroke="black" points="33.94,-46.49 31.13,-36.28 26.96,-46.01 33.94,-46.49"/>
</g>
</g>
</svg>
